<svg height="512" viewBox="0 0 64 64" width="512" xmlns="http://www.w3.org/2000/svg"><path d="m61 35v26h-34v-26h3 4 14 4z" fill="#ffb655"/><path d="m57 27 4 8h-9v-8z" fill="#46f8ff"/><path d="m52 15h5v12h-5z" fill="#57a4ff"/><path d="m52 3.35a5.99 5.99 0 0 1 0 11.3v20.35h-4v-20.35a5.99 5.99 0 0 1 0-11.3v5.65h4z" fill="#ffde55"/><path d="m34 27h14v8h-14z" fill="#46f8ff"/><path d="m34 15h14v4h-14z" fill="#57a4ff"/><path d="m40 3v6h-6-4-6v-6z" fill="#ffde55"/><path d="m34 27v8h-4v-8-8-4-6h4v6 4z" fill="#ff7956"/><path d="m30 27v8h-3l-4-8z" fill="#46f8ff"/><path d="m30 15v4h-13v8h-4v-12z" fill="#57a4ff"/><path d="m27 35v26h-24v-26l4-8h16z" fill="#ff7956"/><circle cx="15" cy="34" fill="#b2fa09" r="3"/><path d="m15 30a4 4 0 1 0 4 4 4 4 0 0 0 -4-4zm0 6a2 2 0 1 1 2-2 2 2 0 0 1 -2 2z"/><path d="m61.9 34.553-3.9-7.789v-11.764a1 1 0 0 0 -1-1h-2.129a6.969 6.969 0 0 0 -2.543-11.594 1 1 0 0 0 -1.328.944v4.65h-2v-4.65a1 1 0 0 0 -1.328-.944 6.969 6.969 0 0 0 -2.543 11.594h-10.129v-4h5a1 1 0 0 0 1-1v-6a1 1 0 0 0 -1-1h-16a1 1 0 0 0 -1 1v6a1 1 0 0 0 1 1h5v4h-16a1 1 0 0 0 -1 1v11h-5a1 1 0 0 0 -.895.553l-4 8a1 1 0 0 0 -.105.447v26a1 1 0 0 0 1 1h58a1 1 0 0 0 1-1v-26a1 1 0 0 0 -.1-.447zm-2.518-.553h-6.382v-6h3.382zm-3.382-8h-3v-10h3zm-9-21v4a1 1 0 0 0 1 1h4a1 1 0 0 0 1-1v-4a4.995 4.995 0 0 1 -1.332 8.707 1 1 0 0 0 -.668.943v19.35h-2v-19.35a1 1 0 0 0 -.668-.943 4.995 4.995 0 0 1 -1.332-8.707zm-12 15h12v6h-12zm0 8h12v6h-12zm12-12v2h-12v-2zm-22-12h14v4h-14zm8 6v24h-2v-24zm-15 16v-6h11v6zm-4-10h15v2h-12a1 1 0 0 0 -1 1v7h-2zm12 44h-22v-24.764l3.618-7.236h14.764l3.618 7.236zm-1.382-32h4.382v6h-1.382zm3.382 32v-24h32v24z"/></svg>